HIERARCHY
ROOT Hip
{
	OFFSET -0.061382 -0.166083 0.124973
	CHANNELS 6 Xposition Yposition Zposition Xrotation Yrotation Zrotation
	JOINT LowerSpine
	{
		OFFSET -0.020392 0.151678 0.260848
		CHANNELS 6 Xposition Yposition Zposition Xrotation Yrotation Zrotation
		JOINT MiddleSpine
		{
			OFFSET -0.018813 -0.013892 0.236262
			CHANNELS 3 Xrotation Yrotation Zrotation
			JOINT Chest
			{
				OFFSET -0.023181 0.055392 0.293193
				CHANNELS 3 Xrotation Yrotation Zrotation
				JOINT Neck
				{
					OFFSET -0.052399 0.004735 0.659299
					CHANNELS 6 Xposition Yposition Zposition Xrotation Yrotation Zrotation
					JOINT Head
					{
						OFFSET -0.029739 -0.105880 0.371045
						CHANNELS 3 Xrotation Yrotation Zrotation
						End Site
						{
							OFFSET -0.004253 -0.002220 0.053438
						}
					}
				}
				JOINT LClavicle
				{
					OFFSET 0.009049 -0.204271 0.638577
					CHANNELS 6 Xposition Yposition Zposition Xrotation Yrotation Zrotation
					JOINT LShoulder
					{
						OFFSET 0.342866 0.146253 0.120790
						CHANNELS 3 Xrotation Yrotation Zrotation
						JOINT LForearm
						{
							OFFSET 0.826135 0.005340 0.062810
							CHANNELS 3 Xrotation Yrotation Zrotation
							JOINT LHand
							{
								OFFSET 0.688815 0.002556 0.056815
								CHANNELS 3 Xrotation Yrotation Zrotation
								JOINT LFinger1
								{
									OFFSET 0.265068 -0.075270 0.043709
									CHANNELS 6 Xposition Yposition Zposition Xrotation Yrotation Zrotation
									JOINT LFinger11
									{
										OFFSET 0.101793 -0.017597 -0.016621
										CHANNELS 3 Xrotation Yrotation Zrotation
										JOINT LFinger12
										{
											OFFSET 0.069492 -0.012018 -0.011349
											CHANNELS 3 Xrotation Yrotation Zrotation
											End Site
											{
												OFFSET 0.051832 -0.008180 -0.011186
											}
										}
									}
								}
								JOINT LFinger2
								{
									OFFSET 0.268857 -0.007403 0.048435
									CHANNELS 6 Xposition Yposition Zposition Xrotation Yrotation Zrotation
									JOINT LFinger21
									{
										OFFSET 0.123470 0.000447 0.010169
										CHANNELS 3 Xrotation Yrotation Zrotation
										JOINT LFinger22
										{
											OFFSET 0.068437 0.000260 0.005656
											CHANNELS 3 Xrotation Yrotation Zrotation
											End Site
											{
												OFFSET 0.053650 -0.000150 0.000472
											}
										}
									}
								}
								JOINT LFinger3
								{
									OFFSET 0.255490 0.060161 0.039126
									CHANNELS 6 Xposition Yposition Zposition Xrotation Yrotation Zrotation
									JOINT LFinger31
									{
										OFFSET 0.112521 0.006850 0.003316
										CHANNELS 3 Xrotation Yrotation Zrotation
										JOINT LFinger32
										{
											OFFSET 0.064118 0.003916 0.001911
											CHANNELS 3 Xrotation Yrotation Zrotation
											End Site
											{
												OFFSET 0.053547 0.002469 -0.002274
											}
										}
									}
								}
								JOINT LFinger4
								{
									OFFSET 0.239918 0.104931 0.002066
									CHANNELS 6 Xposition Yposition Zposition Xrotation Yrotation Zrotation
									JOINT LFinger41
									{
										OFFSET 0.070097 0.019097 -0.008671
										CHANNELS 3 Xrotation Yrotation Zrotation
										JOINT LFinger42
										{
											OFFSET 0.051401 0.014012 -0.006343
											CHANNELS 3 Xrotation Yrotation Zrotation
											End Site
											{
												OFFSET 0.051470 0.011636 -0.009695
											}
										}
									}
								}
								JOINT LFinger0
								{
									OFFSET 0.058506 -0.041646 -0.037907
									CHANNELS 6 Xposition Yposition Zposition Xrotation Yrotation Zrotation
									JOINT LFinger01
									{
										OFFSET 0.105425 -0.077620 -0.026505
										CHANNELS 3 Xrotation Yrotation Zrotation
										JOINT LFinger02
										{
											OFFSET 0.069581 -0.048813 -0.019421
											CHANNELS 3 Xrotation Yrotation Zrotation
											End Site
											{
												OFFSET 0.043574 -0.029084 -0.011579
											}
										}
									}
								}
							}
						}
					}
				}
				JOINT RClavicle
				{
					OFFSET -0.110743 -0.203999 0.629054
					CHANNELS 6 Xposition Yposition Zposition Xrotation Yrotation Zrotation
					JOINT RShoulder
					{
						OFFSET -0.357043 0.147865 0.065168
						CHANNELS 3 Xrotation Yrotation Zrotation
						JOINT RForearm
						{
							OFFSET -0.825651 0.009085 -0.068498
							CHANNELS 3 Xrotation Yrotation Zrotation
							JOINT RHand
							{
								OFFSET -0.689122 0.005680 -0.052723
								CHANNELS 3 Xrotation Yrotation Zrotation
								JOINT RFinger1
								{
									OFFSET -0.268984 -0.074059 0.001258
									CHANNELS 6 Xposition Yposition Zposition Xrotation Yrotation Zrotation
									JOINT RFinger11
									{
										OFFSET -0.097966 -0.017144 -0.032501
										CHANNELS 3 Xrotation Yrotation Zrotation
										JOINT RFinger12
										{
											OFFSET -0.066879 -0.011709 -0.022196
											CHANNELS 3 Xrotation Yrotation Zrotation
											End Site
											{
												OFFSET -0.049450 -0.007950 -0.019237
											}
										}
									}
								}
								JOINT RFinger2
								{
									OFFSET -0.273164 -0.006177 0.005347
									CHANNELS 6 Xposition Yposition Zposition Xrotation Yrotation Zrotation
									JOINT RFinger21
									{
										OFFSET -0.123522 0.001007 -0.009463
										CHANNELS 3 Xrotation Yrotation Zrotation
										JOINT RFinger22
										{
											OFFSET -0.068470 0.000573 -0.005227
											CHANNELS 3 Xrotation Yrotation Zrotation
											End Site
											{
												OFFSET -0.053051 0.000092 -0.008010
											}
										}
									}
								}
								JOINT RFinger3
								{
									OFFSET -0.258189 0.061326 -0.001705
									CHANNELS 6 Xposition Yposition Zposition Xrotation Yrotation Zrotation
									JOINT RFinger31
									{
										OFFSET -0.111600 0.007359 -0.014500
										CHANNELS 3 Xrotation Yrotation Zrotation
										JOINT RFinger32
										{
											OFFSET -0.063599 0.004205 -0.008242
											CHANNELS 3 Xrotation Yrotation Zrotation
											End Site
											{
												OFFSET -0.052504 0.002710 -0.010705
											}
										}
									}
								}
								JOINT RFinger4
								{
									OFFSET -0.236756 0.106012 -0.035826
									CHANNELS 6 Xposition Yposition Zposition Xrotation Yrotation Zrotation
									JOINT RFinger41
									{
										OFFSET -0.067760 0.019409 -0.019630
										CHANNELS 3 Xrotation Yrotation Zrotation
										JOINT RFinger42
										{
											OFFSET -0.049690 0.014241 -0.014376
											CHANNELS 3 Xrotation Yrotation Zrotation
											End Site
											{
												OFFSET -0.049239 0.011864 -0.017701
											}
										}
									}
								}
								JOINT RFinger0
								{
									OFFSET -0.051970 -0.041393 -0.046686
									CHANNELS 6 Xposition Yposition Zposition Xrotation Yrotation Zrotation
									JOINT RFinger01
									{
										OFFSET -0.100262 -0.077157 -0.042862
										CHANNELS 3 Xrotation Yrotation Zrotation
										JOINT RFinger02
										{
											OFFSET -0.065859 -0.048506 -0.030184
											CHANNELS 3 Xrotation Yrotation Zrotation
											End Site
											{
												OFFSET -0.041328 -0.028891 -0.018328
											}
										}
									}
								}
							}
						}
					}
				}
			}
		}
	}
	JOINT RThigh
	{
		OFFSET -0.315571 0.024541 0.093037
		CHANNELS 6 Xposition Yposition Zposition Xrotation Yrotation Zrotation
		JOINT RShin
		{
			OFFSET 0.073668 0.014021 -1.207046
			CHANNELS 3 Xrotation Yrotation Zrotation
			JOINT RFoot
			{
				OFFSET 0.094113 0.013718 -1.183516
				CHANNELS 3 Xrotation Yrotation Zrotation
				JOINT RToe
				{
					OFFSET 0.009979 -0.271361 -0.133269
					CHANNELS 3 Xrotation Yrotation Zrotation
					End Site
					{
						OFFSET -0.000072 -0.053649 -0.000627
					}
				}
			}
		}
	}
	JOINT LThigh
	{
		OFFSET 0.297013 0.023152 0.141742
		CHANNELS 6 Xposition Yposition Zposition Xrotation Yrotation Zrotation
		JOINT LShin
		{
			OFFSET 0.118021 0.013920 -1.203529
			CHANNELS 3 Xrotation Yrotation Zrotation
			JOINT LFoot
			{
				OFFSET 0.094113 0.013718 -1.183517
				CHANNELS 3 Xrotation Yrotation Zrotation
				JOINT LToe
				{
					OFFSET 0.009979 -0.271364 -0.133272
					CHANNELS 3 Xrotation Yrotation Zrotation
					End Site
					{
						OFFSET -0.000072 -0.053649 -0.000627
					}
				}
			}
		}
	}
}
MOTION
Frames: 4
Frame Time: 0.041667
-0.065652 -0.701599 2.323176 7.464198 -15.597709 -102.526023 -0.020392 0.151678 0.260848 0.000001 -0.000012 0.000001 -2.104536 4.542511 -0.600578 -12.252485 14.490364 -0.303657 -0.052399 0.004735 0.659298 -4.703926 7.100804 1.976448 -1.728369 -2.374497 -0.271954 0.009049 -0.204271 0.638577 0.006890 5.463984 0.064579 7.342639 35.419093 23.372721 0.046912 0.007130 -0.642686 -1.420534 -0.733654 23.546826 0.265067 -0.075269 0.043709 0.000005 -0.000003 0.000000 -0.000002 0.000002 0.000005 -0.000010 0.000001 -0.000012 0.268857 -0.007403 0.048434 0.000001 -0.000010 0.000001 0.000001 0.000006 -0.000001 -0.000002 0.000006 0.000000 0.255489 0.060161 0.039125 0.000002 -0.000008 0.000003 0.000001 0.000000 0.000002 0.000001 -0.000000 -0.000001 0.239917 0.104931 0.002066 0.000010 -0.000004 0.000004 0.000010 -0.000003 -0.000004 0.000005 -0.000006 -0.000006 0.058505 -0.041646 -0.037907 -0.000004 -0.000004 0.000002 0.000012 0.000004 -0.000001 0.000009 -0.000005 -0.000009 -0.110743 -0.204000 0.629055 -0.075436 27.970352 0.354616 -17.235728 39.354362 10.838549 -0.073551 -0.010327 0.968011 -0.000024 -0.002803 -0.000035 -0.268984 -0.074059 0.001257 -0.000012 -0.000024 -0.000007 0.000006 0.000015 0.000002 0.000006 -0.000014 -0.000002 -0.273163 -0.006177 0.005347 -0.000004 -0.000033 -0.000009 -0.000001 0.000009 0.000000 -0.000001 -0.000003 -0.000000 -0.258189 0.061326 -0.001706 -0.000004 -0.000030 -0.000008 -0.000002 0.000003 0.000001 0.000002 -0.000006 0.000001 -0.236756 0.106012 -0.035827 0.000003 -0.000022 -0.000005 0.000005 0.000009 0.000005 -0.000002 -0.000013 0.000003 -0.051969 -0.041393 -0.046686 -0.000003 -0.000028 -0.000015 0.000009 -0.000003 -0.000004 -0.000007 0.000000 0.000011 -0.315571 0.024541 0.093037 -12.372194 -8.418154 -4.559238 11.664131 0.067786 0.923542 3.895856 1.149608 -2.234548 -2.636789 0.010792 -0.209460 0.194437 0.252820 0.025548 -15.710711 -27.671557 5.929548 28.888538 0.504167 2.217012 1.131937 -1.947819 4.153974 -10.532554 0.100507 -0.830529 
-0.066623 -0.662494 2.322305 6.329003 -15.550369 -106.832601 -0.020392 0.151678 0.260848 -0.000002 -0.000012 0.000001 -2.245049 4.200756 -0.959185 -12.152095 13.164124 -1.501531 -0.052399 0.004735 0.659299 -4.499668 7.204361 2.013668 -1.662378 -2.288900 -0.260567 0.009049 -0.204271 0.638577 0.007826 5.311342 0.063102 6.008000 32.714998 25.619573 0.120050 0.016084 -1.529242 -1.415294 -0.731857 23.473564 0.265067 -0.075269 0.043709 0.000006 -0.000001 -0.000003 0.000002 0.000005 0.000005 -0.000011 -0.000002 -0.000012 0.268857 -0.007403 0.048434 -0.000002 -0.000007 0.000001 0.000004 0.000003 0.000002 -0.000004 0.000004 0.000002 0.255489 0.060161 0.039126 -0.000002 -0.000004 -0.000001 -0.000002 -0.000002 -0.000001 -0.000001 -0.000009 -0.000009 0.239918 0.104931 0.002067 0.000010 -0.000004 0.000003 0.000010 0.000001 -0.000005 0.000008 -0.000005 -0.000007 0.058505 -0.041646 -0.037907 -0.000004 -0.000001 -0.000003 0.000008 0.000002 -0.000004 0.000013 -0.000008 -0.000003 -0.110743 -0.203999 0.629054 -0.065852 27.224567 0.342112 -14.963725 37.468014 7.894865 -0.051255 -0.007506 0.682798 -0.000024 -0.002709 -0.000035 -0.268985 -0.074058 0.001257 -0.000012 -0.000022 -0.000007 0.000006 0.000016 0.000001 0.000007 -0.000016 0.000002 -0.273163 -0.006177 0.005347 -0.000003 -0.000033 -0.000009 -0.000001 0.000009 0.000000 -0.000001 -0.000003 -0.000000 -0.258188 0.061326 -0.001706 -0.000004 -0.000032 -0.000008 -0.000002 0.000004 0.000001 0.000002 -0.000005 0.000001 -0.236757 0.106012 -0.035827 0.000005 -0.000023 -0.000008 0.000001 0.000009 0.000009 -0.000002 -0.000014 0.000001 -0.051970 -0.041393 -0.046686 -0.000003 -0.000027 -0.000018 0.000004 -0.000005 -0.000002 -0.000009 -0.000000 0.000007 -0.315571 0.024541 0.093037 -12.336624 -8.644119 -4.107777 12.359536 0.077749 0.977943 4.207353 0.669684 -1.144975 -3.420606 0.015859 -0.271615 0.194036 0.253660 0.029414 -17.543377 -26.074420 8.435667 33.757366 0.696028 2.553538 0.901256 -1.887593 3.980060 -12.464143 0.135416 -0.980159 
-0.070157 -0.629035 2.320156 5.520380 -15.299079 -110.288376 -0.020392 0.151678 0.260848 0.000001 -0.000013 -0.000001 -2.368100 3.862882 -1.324557 -11.936019 11.934530 -2.680845 -0.052399 0.004735 0.659298 -4.342890 7.300812 2.047592 -1.501559 -2.156271 -0.237280 0.009049 -0.204271 0.638577 0.009073 5.160520 0.061754 5.314211 29.360736 26.107715 0.174082 0.021980 -2.183681 -1.382966 -0.715748 22.886434 0.265067 -0.075269 0.043709 0.000007 0.000004 -0.000004 0.000002 0.000001 0.000006 -0.000008 0.000001 -0.000011 0.268858 -0.007403 0.048434 -0.000002 -0.000009 -0.000004 0.000004 0.000003 -0.000001 -0.000007 0.000005 -0.000003 0.255490 0.060161 0.039126 0.000003 -0.000001 0.000001 0.000000 -0.000002 0.000001 0.000001 -0.000004 -0.000006 0.239918 0.104931 0.002066 0.000007 -0.000003 0.000003 0.000006 -0.000001 -0.000002 0.000007 -0.000006 -0.000003 0.058505 -0.041646 -0.037907 -0.000003 0.000007 -0.000001 0.000007 0.000008 -0.000002 0.000011 -0.000002 -0.000009 -0.110743 -0.204000 0.629054 -0.056898 26.372791 0.328630 -12.917085 35.262774 5.491928 -0.029503 -0.004832 0.404503 -0.000025 -0.002616 -0.000033 -0.268985 -0.074058 0.001257 -0.000015 -0.000022 -0.000005 0.000008 0.000018 0.000003 0.000004 -0.000016 0.000000 -0.273164 -0.006177 0.005347 -0.000003 -0.000034 -0.000009 -0.000002 0.000009 0.000001 -0.000002 -0.000002 0.000000 -0.258189 0.061326 -0.001706 -0.000004 -0.000031 -0.000008 -0.000003 0.000003 0.000001 0.000001 -0.000005 0.000001 -0.236757 0.106012 -0.035827 0.000003 -0.000023 -0.000008 0.000003 0.000012 0.000007 -0.000005 -0.000017 0.000001 -0.051970 -0.041393 -0.046686 -0.000004 -0.000031 -0.000015 0.000001 -0.000005 -0.000006 -0.000008 0.000000 0.000008 -0.315571 0.024541 0.093037 -11.945540 -8.914566 -3.615233 12.812846 0.084599 1.013338 4.066556 0.374382 -0.527136 -3.755921 0.018288 -0.298179 0.193613 0.254584 0.033544 -19.128527 -24.134661 8.993925 36.563102 0.819362 2.739703 0.773723 -1.552321 3.267338 -13.510589 0.156430 -1.060706 
-0.074341 -0.601735 2.316508 4.908286 -15.137902 -113.039337 -0.020392 0.151678 0.260848 -0.000001 -0.000014 -0.000000 -2.479511 3.524106 -1.700229 -11.603152 10.646475 -4.122813 -0.052399 0.004735 0.659298 -4.237019 7.404020 2.082903 -1.273910 -1.989616 -0.206096 0.009049 -0.204271 0.638577 0.010741 5.015293 0.060598 4.966266 25.796207 25.483268 0.205797 0.025188 -2.566313 -1.268377 -0.657103 20.831568 0.265067 -0.075269 0.043709 0.000006 0.000002 -0.000005 -0.000002 0.000001 0.000006 -0.000008 -0.000005 -0.000010 0.268858 -0.007403 0.048435 0.000002 -0.000006 -0.000002 0.000002 0.000003 -0.000001 -0.000005 0.000005 0.000000 0.255489 0.060161 0.039126 0.000005 -0.000002 0.000000 0.000006 -0.000006 0.000001 0.000001 -0.000006 -0.000007 0.239917 0.104931 0.002066 0.000010 -0.000002 -0.000001 0.000007 -0.000001 0.000001 0.000002 -0.000009 -0.000007 0.058505 -0.041646 -0.037907 -0.000003 0.000001 -0.000001 0.000012 0.000007 -0.000002 0.000009 0.000003 -0.000005 -0.110743 -0.204000 0.629054 -0.048490 25.405678 0.314029 -11.140821 32.914777 3.602944 -0.015732 -0.002909 0.229990 -0.000026 -0.002526 -0.000032 -0.268984 -0.074058 0.001257 -0.000014 -0.000024 -0.000006 0.000010 0.000018 0.000004 0.000004 -0.000016 0.000003 -0.273163 -0.006177 0.005347 -0.000005 -0.000032 -0.000009 -0.000001 0.000010 0.000001 -0.000002 -0.000005 0.000001 -0.258188 0.061326 -0.001706 -0.000005 -0.000030 -0.000009 -0.000000 0.000003 0.000001 0.000001 -0.000005 0.000001 -0.236756 0.106012 -0.035827 0.000002 -0.000024 -0.000008 0.000004 0.000009 0.000007 -0.000007 -0.000012 0.000004 -0.051969 -0.041393 -0.046686 -0.000008 -0.000028 -0.000015 -0.000002 -0.000006 -0.000004 -0.000009 0.000001 0.000011 -0.315571 0.024541 0.093037 -11.561430 -9.193389 -3.130882 13.093094 0.088973 1.035197 3.584624 0.351787 -0.493767 -3.698857 0.017865 -0.293653 0.193161 0.255592 0.037912 -20.606274 -21.960670 7.808585 37.270891 0.851906 2.785704 0.806888 -1.175229 2.498368 -13.311623 0.152321 -1.045423 
